<svg xmlns="http://www.w3.org/2000/svg" viewBox="0 0 622.31 308.92"><defs><style>.cls-1{fill:none;}.cls-2{fill:#1a6a5f;}.cls-3{fill:#323366;}.cls-4{fill:#fff;}</style></defs><g id="Layer_2" data-name="Layer 2"><g id="Layer_1-2" data-name="Layer 1"><polygon class="cls-1" points="192 192.38 192 192.58 192 182.59 192 182.39 192 192.38"/><polygon class="cls-1" points="192 217.85 192 207.86 192 207.67 192 217.66 192 217.85"/><polygon class="cls-1" points="192 205.22 192 195.22 192 195.03 192 205.02 192 205.22"/><polygon class="cls-1" points="192 230.49 192 220.5 192 220.31 192 230.3 192 230.49"/><polygon class="cls-1" points="192 243.13 192 233.14 192 232.95 192 242.94 192 243.13"/><polygon class="cls-2" points="98.66 202.6 88.67 202.6 141.72 255.6 151.71 255.6 98.66 202.6"/><polygon class="cls-2" points="139 149.78 139 151.98 192 205.02 192 195.03 139 141.98 139 149.78"/><polygon class="cls-2" points="139 126.7 192 179.74 192 170.6 139 117.55 139 126.7"/><polygon class="cls-2" points="76.03 202.6 129.08 255.6 139.07 255.6 86.02 202.6 76.03 202.6"/><path class="cls-2" d="M139,112.74v2.1l53,53v-9.15l-50.87-50.89A6.44,6.44,0,0,0,139,112.74Z"/><polygon class="cls-2" points="139 129.34 139 139.34 192 192.38 192 182.39 139 129.34"/><polygon class="cls-2" points="63.39 202.6 116.44 255.6 126.43 255.6 73.39 202.6 63.39 202.6"/><polygon class="cls-2" points="35.47 202.6 25.48 202.6 78.52 255.6 88.51 255.6 35.47 202.6"/><polygon class="cls-2" points="139 189.89 192 242.94 192 232.95 139 179.9 139 189.89"/><path class="cls-2" d="M15.3,214.14l39.78,39.65a6.48,6.48,0,0,0,4.69,1.81h5.29L14.68,205.35A6.76,6.76,0,0,0,15.3,214.14Z"/><polygon class="cls-2" points="139 164.62 192 217.66 192 207.67 139 154.62 139 164.62"/><path class="cls-2" d="M192,152.52a6.67,6.67,0,0,0-1.95-4.69l-39.79-39.78a6.51,6.51,0,0,0-7.57-1.26L192,156.09Z"/><polygon class="cls-2" points="139 177.25 192 230.3 192 220.31 139 167.26 139 177.25"/><path class="cls-2" d="M22.83,202.6H20a6.5,6.5,0,0,0-4,1.31L67.71,255.6h8.17Z"/><polygon class="cls-2" points="48.11 202.6 38.11 202.6 91.16 255.6 101.15 255.6 48.11 202.6"/><path class="cls-2" d="M132.3,202.6h-5.71l46.48,46.46,6.84,6.54h5.44a6.45,6.45,0,0,0,3.36-.79l-53.05-53.09A6.48,6.48,0,0,1,132.3,202.6Z"/><polygon class="cls-2" points="60.75 202.6 57.02 202.6 50.75 202.6 103.8 255.6 113.79 255.6 60.75 202.6"/><polygon class="cls-2" points="101.31 202.6 154.35 255.6 164.35 255.6 111.3 202.6 101.31 202.6"/><polygon class="cls-2" points="171.76 250.53 123.94 202.6 113.95 202.6 166.99 255.6 176.99 255.6 171.76 250.45 171.76 250.53"/><path class="cls-2" d="M139,196.19a6.62,6.62,0,0,1-1.84,4.54l53,53a6.56,6.56,0,0,0,1.8-4.53v-3.66l-53-53Z"/><rect class="cls-3" y="255.6" width="53" height="53" rx="6.63"/><path class="cls-1" d="M566.65,149.6h0Z"/><polygon class="cls-2" points="527.86 256.6 530.45 259.11 579.04 307.6 589.03 307.6 563.44 282.1 537.86 256.6 527.86 256.6"/><polygon class="cls-2" points="490.5 209.71 465 184.12 465 194.12 513.5 242.7 516 245.29 516 235.3 490.5 209.71"/><polygon class="cls-2" points="553.76 307.6 563.75 307.6 465 209.4 465 219.39 553.76 307.6"/><polygon class="cls-2" points="571.47 237.57 622 288.19 622 278.2 571 227.02 571 237.01 571.47 237.57"/><polygon class="cls-2" points="538.48 307.6 465 234.68 465 244.67 528.48 307.6 538.48 307.6"/><polygon class="cls-2" points="622 275.55 622 265.56 571 214.38 571 224.38 622 275.55"/><polygon class="cls-2" points="622 227.64 544.58 149.6 534.58 149.6 622 237.63 622 227.64"/><path class="cls-2" d="M571,249.24c0,.13-.1.26-.11.39L622,300.83v-10l-50.53-50.62-.47-.56Z"/><polygon class="cls-2" points="604.32 307.6 614.31 307.6 563.13 256.6 553.14 256.6 578.73 282.1 604.32 307.6"/><path class="cls-2" d="M563.7,201.6c4.17,0,7.3,3.68,7.3,7.85v2.29l51,51.17v-10L519.3,149.6h-10l52.12,52Z"/><polygon class="cls-2" points="540.5 256.6 543.09 259.11 591.68 307.6 601.67 307.6 599.08 305.1 550.49 256.6 540.5 256.6"/><polygon class="cls-2" points="558.77 201.6 506.66 149.6 496.67 149.6 548.78 201.6 558.77 201.6"/><polygon class="cls-2" points="622 240.28 531.94 149.6 521.94 149.6 622 250.27 622 240.28"/><polygon class="cls-2" points="546.13 201.6 505.65 161.18 494.02 149.6 484.03 149.6 500.65 166.17 536.14 201.6 546.13 201.6"/><path class="cls-2" d="M533.49,201.6l-52.11-52h-10l52.13,52.08a2.7,2.7,0,0,1,.39-.08Z"/><path class="cls-2" d="M565.55,256.58,616.94,308a5.7,5.7,0,0,0,5.37-4.63l-51.53-51.52A7.55,7.55,0,0,1,565.55,256.58Z"/><path class="cls-2" d="M516.51,207.62a7.6,7.6,0,0,1,4.78-5.25L468.9,150a7.36,7.36,0,0,0-3.9,3v3.18Z"/><path class="cls-2" d="M517.67,307.6h8.17L465,247.32v5.8a5.39,5.39,0,0,0,1.75,3.84Z"/><polygon class="cls-2" points="622 215 557.21 149.6 547.22 149.6 622 225 622 215"/><path class="cls-2" d="M523.91,256.6c-4.17,0-7.91-3.19-7.91-7.36v-1.3l-2.5-2.6L465,196.76v10L566.4,307.6h10l-48.58-48.49-2.59-2.51Z"/><polygon class="cls-2" points="465 171.49 465 181.48 513.5 230.06 516 232.65 516 222.66 465 171.49"/><path class="cls-2" d="M622,205.57a5.47,5.47,0,0,0-1.45-4l-50-50.19a5.47,5.47,0,0,0-3.9-1.75h-6.8L622,212.36Z"/><polygon class="cls-2" points="541.12 307.6 551.11 307.6 465 222.04 465 232.03 541.12 307.6"/><polygon class="cls-2" points="465 158.85 465 168.84 516 220.01 516 210.02 465 158.85"/><path class="cls-2" d="M415.8,2a6.63,6.63,0,0,0-11.32,4.68V196.19a6.63,6.63,0,0,1-6.63,6.63H358.06a6.63,6.63,0,0,0-6.63,6.63v39.79a6.63,6.63,0,0,0,6.63,6.63h92.83a6.63,6.63,0,0,0,6.64-6.63V46.43a6.61,6.61,0,0,0-1.95-4.69Z"/><line class="cls-4" x1="199" y1="109.99" x2="225.53" y2="136.51"/><rect class="cls-2" x="210.39" y="104.5" width="3.74" height="37.51" transform="translate(-24.98 186.19) rotate(-45)"/><line class="cls-4" x1="464.24" y1="109.99" x2="490.76" y2="136.51"/><rect class="cls-2" x="475.63" y="104.5" width="3.74" height="37.51" transform="translate(52.7 373.74) rotate(-45)"/><path class="cls-2" d="M26.6,138.38a15.13,15.13,0,1,1,15.13-15.13A15.14,15.14,0,0,1,26.6,138.38Zm0-26.52A11.39,11.39,0,1,0,38,123.25,11.4,11.4,0,0,0,26.6,111.86Z"/><path class="cls-2" d="M371.41,138.38a15.13,15.13,0,1,1,15.13-15.13A15.15,15.15,0,0,1,371.41,138.38Zm0-26.52a11.39,11.39,0,1,0,11.38,11.39A11.41,11.41,0,0,0,371.41,111.86Z"/><path class="cls-2" d="M252.05,249.24V209.45a6.63,6.63,0,0,1,6.63-6.63h83.46a6.63,6.63,0,0,0,4.68-11.32L307,151.72a6.6,6.6,0,0,0-4.69-1.94H205.63a6.63,6.63,0,0,0-6.63,6.63v96.71a6.61,6.61,0,0,0,1.95,4.69L250.11,307a6.61,6.61,0,0,0,4.69,1.95h87.34a6.63,6.63,0,0,0,4.68-11.32L307,257.81a6.64,6.64,0,0,0-4.69-1.94H258.68A6.63,6.63,0,0,1,252.05,249.24Z"/></g></g></svg>