<svg xmlns="http://www.w3.org/2000/svg" viewBox="0 0 445.46 599.08"><defs><style>.cls-1,.cls-2{fill:none;stroke:#c1ab19;stroke-miterlimit:10;}.cls-1{stroke-width:1.5px;}</style></defs><g id="Layer_2" data-name="Layer 2"><g id="Layer_1-2" data-name="Layer 1"><path class="cls-1" d="M295.31,304.53V446.86a5,5,0,0,0,1.46,3.53L436.18,589.8a5,5,0,0,0,8.53-3.54V304.53a5,5,0,0,0-5-5H300.31A5,5,0,0,0,295.31,304.53Z"/><path class="cls-1" d="M145.9,453.93v139.4a5,5,0,0,0,5,5H432.64a5,5,0,0,0,3.54-8.53L296.77,450.39a5,5,0,0,0-3.53-1.46H150.9A5,5,0,0,0,145.9,453.93Z"/><path class="cls-1" d="M300.31,299.53H432.64a5,5,0,0,0,3.54-8.54L303.84,158.66a5,5,0,0,0-8.53,3.53V294.53A5,5,0,0,0,300.31,299.53Z"/><path class="cls-1" d="M140.9,150.12H8.57A5,5,0,0,0,5,158.66L137.37,291a5,5,0,0,0,8.53-3.54V155.12A5,5,0,0,0,140.9,150.12Z"/><rect class="cls-1" x="145.9" y="150.12" width="149.4" height="149.4" rx="5"/><rect class="cls-2" x="0.5" y="0.5" width="149.4" height="149.4" rx="5"/></g></g></svg>