<svg xmlns="http://www.w3.org/2000/svg" viewBox="0 0 449.71 767.76"><defs><style>.cls-1{fill:none;stroke:#c1ab19;stroke-miterlimit:10;stroke-width:1.5px;}</style></defs><g id="Layer_2" data-name="Layer 2"><g id="Layer_1-2" data-name="Layer 1"><path class="cls-1" d="M148.69,289.55,9.29,150.14a5,5,0,0,0-8.54,3.54V435.42a5,5,0,0,0,5,5h139.4a5,5,0,0,0,5-5V293.09A5,5,0,0,0,148.69,289.55Z"/><path class="cls-1" d="M299.56,296V438.35a5,5,0,0,0,1.46,3.53L440.43,581.29a5,5,0,0,0,8.53-3.54V296a5,5,0,0,0-5-5H304.56A5,5,0,0,0,299.56,296Z"/><path class="cls-1" d="M150.15,445.42v139.4a5,5,0,0,0,5,5H436.89a5,5,0,0,0,3.54-8.53L301,441.88a5,5,0,0,0-3.53-1.46H155.15A5,5,0,0,0,150.15,445.42Z"/><path class="cls-1" d="M304.56,291H436.89a5,5,0,0,0,3.54-8.53L308.09,150.14a5,5,0,0,0-8.53,3.54V286A5,5,0,0,0,304.56,291Z"/><path class="cls-1" d="M304.56,143.09H436.89a5,5,0,0,0,3.54-8.53L308.09,2.22a5,5,0,0,0-8.53,3.54V138.09A5,5,0,0,0,304.56,143.09Z"/><path class="cls-1" d="M145.15,141.61H12.82a5,5,0,0,0-3.53,8.53L141.62,282.48a5,5,0,0,0,8.53-3.54V146.61A5,5,0,0,0,145.15,141.61Z"/><rect class="cls-1" x="150.15" y="141.61" width="149.4" height="149.4" rx="5"/><path class="cls-1" d="M150.15,577.75V445.42a5,5,0,0,0-5-5H12.82A5,5,0,0,0,9.29,449L141.62,581.29A5,5,0,0,0,150.15,577.75Z"/><rect class="cls-1" x="0.75" y="617.6" width="149.4" height="149.4" rx="5"/></g></g></svg>