<svg xmlns="http://www.w3.org/2000/svg" viewBox="0 0 881.5 30.27"><defs><style>.cls-1{fill:#fff;}.cls-2{fill:#1a6a5f;}</style></defs><g id="Layer_2" data-name="Layer 2"><g id="Layer_1-2" data-name="Layer 1"><line class="cls-1" x1="588.42" y1="1.87" x2="614.94" y2="28.39"/><rect class="cls-2" x="599.81" y="-3.62" width="3.74" height="37.51" transform="translate(165.53 429.89) rotate(-45)"/><line class="cls-1" x1="1.32" y1="1.87" x2="27.85" y2="28.39"/><rect class="cls-2" x="12.71" y="-3.62" width="3.74" height="37.51" transform="translate(-6.43 14.75) rotate(-45)"/><line class="cls-1" x1="16.82" y1="1.87" x2="43.35" y2="28.39"/><rect class="cls-2" x="28.21" y="-3.62" width="3.74" height="37.51" transform="translate(-1.89 25.71) rotate(-45)"/><line class="cls-1" x1="32.32" y1="1.87" x2="58.85" y2="28.39"/><rect class="cls-2" x="43.72" y="-3.62" width="3.74" height="37.51" transform="translate(2.65 36.67) rotate(-45)"/><line class="cls-1" x1="853.65" y1="1.87" x2="880.18" y2="28.39"/><rect class="cls-2" x="865.04" y="-3.62" width="3.74" height="37.51" transform="translate(243.21 617.43) rotate(-45)"/><path class="cls-2" d="M416,30.27a15.14,15.14,0,1,1,15.13-15.14A15.15,15.15,0,0,1,416,30.27Zm0-26.53a11.39,11.39,0,1,0,11.39,11.39A11.4,11.4,0,0,0,416,3.74Z"/><path class="cls-2" d="M760.82,30.27A15.14,15.14,0,1,1,776,15.13,15.15,15.15,0,0,1,760.82,30.27Zm0-26.53a11.39,11.39,0,1,0,11.39,11.39A11.4,11.4,0,0,0,760.82,3.74Z"/></g></g></svg>