<svg width="481" height="31" viewBox="0 0 481 31" fill="none" xmlns="http://www.w3.org/2000/svg">
<path d="M188.895 0.565984L186.25 3.21056L212.774 29.7341L215.418 27.0896L188.895 0.565984Z" fill="#1A6A5F"/>
<path d="M454.121 0.56002L451.476 3.20464L477.999 29.7282L480.644 27.0836L454.121 0.56002Z" fill="#1A6A5F"/>
<path d="M15.15 30.28C12.1552 30.282 9.22703 29.3957 6.73595 27.7333C4.24488 26.0709 2.3028 23.7071 1.15536 20.9408C0.00791204 18.1745 -0.293356 15.13 0.289695 12.1925C0.872745 9.25494 2.3139 6.55631 4.43087 4.43795C6.54784 2.31958 9.24552 0.876641 12.1827 0.29165C15.1198 -0.293341 18.1645 0.00589693 20.9315 1.15151C23.6986 2.29713 26.0637 4.23766 27.7278 6.72763C29.3918 9.21761 30.28 12.1452 30.28 15.14C30.2774 19.1528 28.6828 23.0007 25.8462 25.8391C23.0096 28.6776 19.1628 30.2747 15.15 30.28V30.28ZM15.15 3.75C12.8973 3.75 10.6951 4.41802 8.82207 5.66956C6.949 6.92111 5.48912 8.69999 4.62704 10.7812C3.76495 12.8625 3.53939 15.1526 3.97887 17.3621C4.41836 19.5715 5.50314 21.601 7.09606 23.194C8.68898 24.7869 10.7185 25.8717 12.9279 26.3111C15.1374 26.7506 17.4275 26.5251 19.5088 25.663C21.59 24.8009 23.3689 23.341 24.6204 21.4679C25.872 19.5949 26.54 17.3927 26.54 15.14C26.5374 12.12 25.3365 9.22445 23.201 7.08898C21.0656 4.95352 18.17 3.75265 15.15 3.75V3.75Z" fill="#1A6A5F"/>
<path d="M359.97 30.28C356.977 30.2721 354.054 29.3774 351.57 27.709C349.085 26.0406 347.151 23.6733 346.011 20.9062C344.871 18.139 344.577 15.0961 345.166 12.1619C345.754 9.22766 347.2 6.53371 349.318 4.42034C351.437 2.30697 354.135 0.868996 357.071 0.288051C360.007 -0.292895 363.049 0.00925434 365.813 1.15633C368.577 2.30341 370.939 4.24395 372.601 6.73284C374.263 9.22172 375.15 12.1473 375.15 15.14C375.149 17.1312 374.755 19.1026 373.991 20.9415C373.227 22.7804 372.108 24.4507 370.698 25.8568C369.289 27.263 367.615 28.3774 365.775 29.1364C363.934 29.8953 361.961 30.2839 359.97 30.28V30.28ZM359.97 3.75C357.717 3.75 355.515 4.41801 353.642 5.66956C351.769 6.92111 350.309 8.69999 349.447 10.7812C348.585 12.8625 348.359 15.1526 348.799 17.3621C349.238 19.5715 350.323 21.601 351.916 23.1939C353.509 24.7869 355.538 25.8717 357.748 26.3111C359.957 26.7506 362.247 26.5251 364.329 25.663C366.41 24.8009 368.189 23.341 369.44 21.4679C370.692 19.5949 371.36 17.3927 371.36 15.14C371.357 12.12 370.156 9.22444 368.021 7.08898C365.886 4.95351 362.99 3.75265 359.97 3.75V3.75Z" fill="#1A6A5F"/>
</svg>
