<svg width="31" height="31" viewBox="0 0 31 31" fill="none" xmlns="http://www.w3.org/2000/svg">
<path d="M15.15 30.28C12.1552 30.282 9.22703 29.3957 6.73595 27.7333C4.24488 26.0709 2.3028 23.7071 1.15536 20.9408C0.00791204 18.1745 -0.293356 15.13 0.289695 12.1925C0.872745 9.25494 2.3139 6.55631 4.43087 4.43795C6.54784 2.31958 9.24552 0.876641 12.1827 0.29165C15.1198 -0.293341 18.1645 0.00589693 20.9315 1.15151C23.6986 2.29713 26.0637 4.23766 27.7278 6.72763C29.3918 9.21761 30.28 12.1452 30.28 15.14C30.2774 19.1528 28.6828 23.0007 25.8462 25.8391C23.0096 28.6776 19.1628 30.2747 15.15 30.28V30.28ZM15.15 3.75C12.8973 3.75 10.6951 4.41802 8.82207 5.66956C6.949 6.92111 5.48912 8.69999 4.62704 10.7812C3.76495 12.8625 3.53939 15.1526 3.97887 17.3621C4.41836 19.5715 5.50314 21.601 7.09606 23.194C8.68898 24.7869 10.7185 25.8717 12.9279 26.3111C15.1374 26.7506 17.4275 26.5251 19.5088 25.663C21.59 24.8009 23.3689 23.341 24.6204 21.4679C25.872 19.5949 26.54 17.3927 26.54 15.14C26.5374 12.12 25.3365 9.22445 23.201 7.08898C21.0656 4.95352 18.17 3.75265 15.15 3.75V3.75Z" fill="#1A6A5F"/>
</svg>
