<svg width="32" height="31" viewBox="0 0 32 31" fill="none" xmlns="http://www.w3.org/2000/svg">
<path d="M15.97 30.28C12.9773 30.2721 10.0541 29.3774 7.56958 27.709C5.08509 26.0406 3.15077 23.6733 2.01099 20.9062C0.87121 18.139 0.577085 15.0961 1.16577 12.1619C1.75446 9.22766 3.19953 6.53371 5.31848 4.42034C7.43744 2.30697 10.1352 0.868996 13.071 0.288051C16.0068 -0.292895 19.0488 0.00925434 21.813 1.15633C24.5771 2.30341 26.9393 4.24395 28.6011 6.73284C30.263 9.22172 31.15 12.1473 31.15 15.14C31.1487 17.1312 30.7549 19.1026 29.991 20.9415C29.2272 22.7804 28.1083 24.4507 26.6985 25.8568C25.2886 27.263 23.6154 28.3774 21.7745 29.1364C19.9336 29.8953 17.9612 30.2839 15.97 30.28V30.28ZM15.97 3.75C13.7172 3.75 11.5151 4.41801 9.64203 5.66956C7.76896 6.92111 6.30905 8.69999 5.44696 10.7812C4.58488 12.8625 4.35935 15.1526 4.79883 17.3621C5.23832 19.5715 6.3231 21.601 7.91602 23.1939C9.50894 24.7869 11.5384 25.8717 13.7479 26.3111C15.9573 26.7506 18.2475 26.5251 20.3287 25.663C22.41 24.8009 24.1889 23.341 25.4404 21.4679C26.692 19.5949 27.36 17.3927 27.36 15.14C27.3573 12.12 26.1565 9.22444 24.021 7.08898C21.8855 4.95351 18.99 3.75265 15.97 3.75V3.75Z" fill="#1A6A5F"/>
</svg>
